<svg width="193" height="46" fill="none" xmlns="http://www.w3.org/2000/svg"><path fill-rule="evenodd" clip-rule="evenodd" d="M69.514 45.891v-9.045h2.662c.807 0 1.441.236 1.919.7.477.463.712 1.095.712 1.88 0 .53-.125.994-.368 1.399-.242.404-.58.7-1.002.885-.423.185-1.034.27-1.825.27h-.892v3.911h-1.206Zm2.459-7.89h-1.245v2.824h1.315c.486 0 .87-.127 1.128-.371.266-.245.4-.607.4-1.062 0-.928-.533-1.391-1.598-1.391Zm6.491 7.89v-9.045h2.107c.853 0 1.527.227 2.028.683.501.455.744 1.062.744 1.837 0 .532-.125.987-.368 1.366a2.165 2.165 0 0 1-1.05.86c.267.185.533.447.791.776.259.328.62.901 1.081 1.72.29.514.525.901.705 1.163l.446.649h-1.433l-.368-.599c-.015-.025-.031-.059-.07-.11l-.235-.354-.376-.657-.4-.708a7.451 7.451 0 0 0-.68-.885 2.476 2.476 0 0 0-.557-.472c-.164-.102-.446-.144-.838-.144h-.313v3.937h-1.214v-.017Zm1.567-7.94h-.36V40.8h.453c.611 0 1.026-.051 1.253-.17.228-.109.4-.277.533-.505.125-.227.188-.48.188-.775 0-.287-.07-.548-.212-.776a1.171 1.171 0 0 0-.595-.489c-.242-.093-.665-.135-1.26-.135Zm11.793-1.24c1.3 0 2.38.447 3.242 1.332.869.885 1.3 1.998 1.3 3.33s-.439 2.445-1.308 3.313c-.87.877-1.973 1.315-3.297 1.315-1.268 0-2.318-.438-3.163-1.315-.846-.877-1.261-1.973-1.261-3.288 0-1.349.423-2.47 1.276-3.355.838-.885 1.919-1.332 3.21-1.332Zm.047 1.24c-.963 0-1.746.32-2.365.969-.619.649-.924 1.475-.924 2.478 0 .978.305 1.787.932 2.436.618.65 1.394.97 2.326.97.94 0 1.722-.329 2.349-.986.626-.658.94-1.484.94-2.47 0-.962-.314-1.762-.94-2.42a3.114 3.114 0 0 0-2.318-.978Zm8.481 7.94v-9.045h2.662c.807 0 1.441.236 1.919.7.477.463.712 1.095.712 1.88 0 .53-.125.994-.368 1.399a2.15 2.15 0 0 1-1.002.885c-.431.185-1.034.27-1.832.27h-.893v3.911h-1.198Zm2.451-7.89h-1.245v2.824h1.323c.486 0 .861-.127 1.128-.371.266-.245.399-.607.399-1.062 0-.928-.54-1.391-1.605-1.391Zm6.46-1.155h4.769V38h-3.563v2.756h3.438v1.155h-3.438v2.824h3.673v1.155h-4.879v-9.045Zm8.763 9.045v-9.045h2.106c.854 0 1.527.227 2.029.683.501.455.751 1.062.751 1.837 0 .532-.125.987-.368 1.366-.242.388-.595.675-1.057.86.266.185.533.447.791.776.259.328.619.901 1.081 1.72.29.514.524.901.705 1.163l.446.649h-1.433l-.368-.599c-.016-.025-.032-.059-.071-.11l-.235-.354-.375-.657-.4-.708a7.453 7.453 0 0 0-.681-.885 2.494 2.494 0 0 0-.556-.472c-.165-.102-.447-.144-.838-.144h-.313v3.937h-1.214v-.017Zm1.574-7.94h-.36V40.8h.454c.611 0 1.026-.051 1.253-.17.227-.109.399-.277.532-.505.126-.227.188-.48.188-.775 0-.287-.07-.548-.211-.776a1.142 1.142 0 0 0-.595-.489c-.251-.093-.674-.135-1.261-.135Zm6.578-1.105h7.024V38h-2.936v7.89h-1.206v-7.89h-2.882v-1.155Zm10.744 0h1.206v9.045h-1.206v-9.045Zm5.63 0h4.769V38h-3.563v2.756h3.438v1.155h-3.438v2.824h3.673v1.155h-4.879v-9.045Zm10.815 5.252-.917-.599c-.571-.38-.986-.75-1.229-1.113-.243-.362-.36-.784-.36-1.264 0-.717.235-1.29.689-1.737.462-.447 1.057-.666 1.785-.666.705 0 1.347.211 1.935.641v1.475c-.603-.632-1.261-.944-1.958-.944-.392 0-.713.101-.971.295a.91.91 0 0 0-.376.75c0 .27.094.523.282.768.188.236.485.489.9.75l.917.582c1.025.666 1.534 1.5 1.534 2.52 0 .725-.227 1.315-.673 1.77-.454.456-1.034.683-1.762.683-.83 0-1.59-.278-2.271-.826V43.54c.65.886 1.402 1.332 2.255 1.332.376 0 .697-.11.948-.337.251-.228.376-.514.376-.851.008-.574-.36-1.096-1.104-1.585ZM42.507 23.284h2.302L55.67.666h-2.89L44.45 19.06 35.952.666h-3.821l10.376 22.618Zm16.648 0h3.375V.666h-3.375v22.618Zm21.574.657c5.411 0 8.528-2.478 10.501-4.4l-1.62-1.779c-1.684 1.745-4.347 3.912-8.497 3.912-4.769 0-8.95-3.634-8.95-9.425 0-5.901 3.695-10.049 8.754-10.049 3.563 0 6.547 1.956 8.332 3.946l1.684-1.847C88.772 1.99 85.428 0 80.956 0 73.854 0 68.38 5.168 68.38 12.249c0 7.047 5.607 11.692 12.35 11.692Zm15.967-.657h18.998v-2.445h-15.622v-8.101h8.527v-2.411h-8.527V3.102h14.878V.658H96.696v22.626Zm24.237 0h3.375v-9.745h7.909l5.505 9.736h3.986l-5.896-10.09c1.558-.245 2.881-.869 3.892-1.88 1.104-1.121 1.714-2.656 1.714-4.047 0-1.644-.579-3.245-1.519-4.257-1.785-1.846-3.469-2.335-7.65-2.335h-11.316v22.618ZM124.3 11.27V3.035h8.426c2.788 0 5.184.733 5.184 4.19 0 2.58-1.879 4.046-4.667 4.046H124.3Zm33.509 12.67c6.577 0 11.996-5.378 11.996-11.97C169.805 5.378 164.394 0 157.809 0c-6.61 0-11.997 5.378-11.997 11.97 0 6.601 5.379 11.971 11.997 11.971Zm0-2.124c-5.224 0-8.27-4.367-8.27-9.846 0-5.514 3.046-9.88 8.27-9.88 5.191 0 8.206 4.366 8.206 9.88-.008 5.48-3.022 9.846-8.206 9.846Zm22.09 1.467h3.376v-9.568L193 .666h-3.085l-7.619 10.858L174.512.666h-4.119l9.499 13.05v9.568h.007ZM16.589.664h2.937V16.16h-3.407V.664h.47ZM5.845 7.77H8.78v15.502H5.375V7.77h.47ZM.47.664h2.944V16.16H0V.664h.47ZM11.216.664h2.937V30.39h-3.407V.664h.47Z" fill="#c5b575"/></svg>