<svg width="18" height="19" viewBox="0 0 18 19" fill="none" xmlns="http://www.w3.org/2000/svg">
    <g id="Icon/keyboard_arrow_right">
        <mask id="mask0_320_16582" style="mask-type:alpha" maskUnits="userSpaceOnUse" x="0" y="0"
            width="18" height="19">
            <rect id="Bounding box" y="0.625" width="18" height="18" fill="#D9D9D9" />
        </mask>
        <g mask="url(#mask0_320_16582)">
            <path id="keyboard_arrow_right"
                d="M9.71006 9.62489L6.65513 6.57014C6.55138 6.46626 6.49825 6.3357 6.49575 6.17845C6.49338 6.02132 6.5465 5.88839 6.65513 5.77964C6.76388 5.67101 6.89562 5.6167 7.05037 5.6167C7.20512 5.6167 7.33687 5.67101 7.44562 5.77964L10.8163 9.15032C10.8864 9.22057 10.9359 9.29464 10.9648 9.37251C10.9937 9.45039 11.0081 9.53451 11.0081 9.62489C11.0081 9.71526 10.9937 9.79939 10.9648 9.87726C10.9359 9.95514 10.8864 10.0292 10.8163 10.0994L7.44562 13.4701C7.34175 13.5739 7.21119 13.627 7.05394 13.6295C6.89681 13.6319 6.76388 13.5788 6.65513 13.4701C6.5465 13.3614 6.49219 13.2296 6.49219 13.0749C6.49219 12.9201 6.5465 12.7884 6.65513 12.6796L9.71006 9.62489Z"
                fill="#6B6B80" />
        </g>
    </g>
</svg>