<svg xmlns="http://www.w3.org/2000/svg" width="25" height="24" fill="none"><mask id="a" style="mask-type:alpha" maskUnits="userSpaceOnUse" x="0" y="0" width="25" height="24"><path fill="#D9D9D9" d="M.5 0h24v24H.5z"/></mask><g mask="url(#a)"><path d="M17.577 16.077h-2.448a.49.49 0 0 1-.475-.5c0-.13.048-.245.143-.347a.47.47 0 0 1 .357-.153h2.423v-2.423c0-.142.048-.26.144-.356a.485.485 0 0 1 .357-.144c.142 0 .26.048.356.144a.485.485 0 0 1 .143.356v2.423H21c.142 0 .26.048.356.144a.485.485 0 0 1 .144.357c0 .142-.048.26-.144.356a.485.485 0 0 1-.356.143h-2.423V18.5c0 .142-.048.26-.144.356a.485.485 0 0 1-.357.144.482.482 0 0 1-.356-.144.484.484 0 0 1-.143-.356v-2.423Zm-6.962 0H7.578c-1.128 0-2.09-.397-2.885-1.192C3.897 14.09 3.5 13.129 3.5 12s.397-2.09 1.192-2.885c.795-.795 1.757-1.193 2.885-1.193h3.039a.48.48 0 0 1 .347.153c.102.102.153.22.153.357a.458.458 0 0 1-.153.347.494.494 0 0 1-.347.143H7.575a2.96 2.96 0 0 0-2.171.904A2.963 2.963 0 0 0 4.5 12c0 .846.301 1.57.904 2.173a2.96 2.96 0 0 0 2.17.904h3.042a.48.48 0 0 1 .347.153.49.49 0 0 1 .153.357.458.458 0 0 1-.153.347.494.494 0 0 1-.347.143ZM9.5 12.5a.483.483 0 0 1-.356-.144A.485.485 0 0 1 9 12c0-.142.048-.26.144-.356A.485.485 0 0 1 9.5 11.5h6c.142 0 .26.048.356.144a.485.485 0 0 1 .144.357c0 .142-.048.26-.144.356a.484.484 0 0 1-.356.143h-6Zm12-.5h-1c0-.846-.301-1.57-.904-2.173a2.96 2.96 0 0 0-2.17-.904H14.36a.49.49 0 0 1-.475-.5.49.49 0 0 1 .143-.347.469.469 0 0 1 .356-.153h3.039c1.128 0 2.09.398 2.885 1.193.794.795 1.192 1.756 1.192 2.884Z" fill="#707070"/></g></svg>