<!-- linkedin.svg -->
<svg xmlns="http://www.w3.org/2000/svg" width="25" height="24" fill="none">
  <path fill-rule="evenodd" clip-rule="evenodd" d="M19.668 19.068a1.1 1.1 0 0 0 .332-.771V5.595a1.096 1.096 0 0 0-1.11-1.08H6.109a1.093 1.093 0 0 0-1.107 1.08v12.702a1.095 1.095 0 0 0 1.106 1.082h12.78c.291.004.572-.109.78-.31Zm-5.766-8.704c.37-.203.789-.302 1.212-.286 2.252 0 2.669 1.482 2.668 3.409v3.926h-2.223v-3.48c0-.83-.015-1.899-1.156-1.899-1.158 0-1.335.905-1.335 1.838v3.54h-2.222v-7.156h2.133v.977h.03c.213-.365.521-.665.893-.869Zm-4.453-.108H7.225v7.157h2.224v-7.157ZM7.414 7.029a1.4 1.4 0 0 1 .923-.45v.002a1.398 1.398 0 0 1 1.29 1.408 1.293 1.293 0 0 1-1.29 1.289 1.29 1.29 0 0 1-1.29-1.29 1.4 1.4 0 0 1 .367-.96Z" fill="#707070"/>
</svg>
