<svg xmlns="http://www.w3.org/2000/svg" width="16" height="16" fill="none"><mask id="a" style="mask-type:alpha" maskUnits="userSpaceOnUse" x="0" y="0" width="16" height="16"><path fill="#D9D9D9" d="M0 0h16v16H0z"/></mask><g mask="url(#a)"><path d="M12 14.5a1.77 1.77 0 0 1-1.298-.535 1.767 1.767 0 0 1-.535-1.298c0-.084.006-.17.02-.259a1.34 1.34 0 0 1 .06-.246L5.314 9.274a1.965 1.965 0 0 1-.6.411A1.756 1.756 0 0 1 4 9.833c-.51 0-.942-.178-1.299-.534A1.767 1.767 0 0 1 2.167 8c0-.51.178-.942.534-1.299.357-.357.79-.535 1.3-.535.25 0 .488.05.713.148.225.098.425.235.601.41l4.931-2.886a1.341 1.341 0 0 1-.06-.247 1.765 1.765 0 0 1-.02-.259c0-.509.179-.942.535-1.298A1.767 1.767 0 0 1 12 1.5c.51 0 .942.178 1.3.534.356.357.534.79.534 1.299 0 .509-.178.942-.534 1.298-.357.357-.79.536-1.299.536-.251 0-.49-.05-.714-.148a1.965 1.965 0 0 1-.601-.411L5.754 7.495c.026.075.046.157.06.246a1.752 1.752 0 0 1 0 .517c-.014.09-.034.172-.06.247l4.93 2.887c.177-.175.377-.312.602-.41.225-.1.463-.149.714-.149.51 0 .942.178 1.299.535.356.356.534.789.534 1.298s-.178.942-.534 1.299A1.766 1.766 0 0 1 12 14.5Zm0-10.333a.803.803 0 0 0 .59-.243.803.803 0 0 0 .243-.59.803.803 0 0 0-.243-.591A.803.803 0 0 0 12 2.5a.803.803 0 0 0-.59.243.803.803 0 0 0-.243.59c0 .232.08.429.243.59a.803.803 0 0 0 .59.244ZM4 8.833a.803.803 0 0 0 .59-.243.803.803 0 0 0 .243-.59.803.803 0 0 0-.243-.59.803.803 0 0 0-.59-.243.803.803 0 0 0-.59.243.803.803 0 0 0-.243.59c0 .232.08.428.243.59a.803.803 0 0 0 .59.243Zm8 4.667a.803.803 0 0 0 .59-.243.803.803 0 0 0 .243-.59.803.803 0 0 0-.243-.59.803.803 0 0 0-.59-.244.803.803 0 0 0-.59.243.803.803 0 0 0-.243.59c0 .232.08.43.243.591a.803.803 0 0 0 .59.243Z" fill="#2B3E31"/></g></svg>