<svg width="24" height="24" class="m-btn-share__option-btn-icon" fill="none" xmlns="http://www.w3.org/2000/svg"><g clip-path="url(#a)" fill="#707070"><path d="M17.657 6.343A7.948 7.948 0 0 0 12 4a7.948 7.948 0 0 0-5.657 2.343A7.948 7.948 0 0 0 4 12c0 1.36.346 2.697 1.003 3.88l-.986 3.525a.469.469 0 0 0 .578.578l3.525-.986A7.995 7.995 0 0 0 12 20a7.948 7.948 0 0 0 5.657-2.343A7.948 7.948 0 0 0 20 12a7.948 7.948 0 0 0-2.343-5.657ZM12 19.063a7.054 7.054 0 0 1-3.58-.974.468.468 0 0 0-.363-.048l-2.913.815.815-2.913a.469.469 0 0 0-.048-.364A7.056 7.056 0 0 1 4.938 12c0-1.886.734-3.66 2.068-4.994A7.016 7.016 0 0 1 12 4.937 7.07 7.07 0 0 1 19.063 12 7.07 7.07 0 0 1 12 19.063Z"/><path d="M15.453 12.6a1.511 1.511 0 0 0-1.076-.445c-.407 0-.79.158-1.076.445l-.217.217a.285.285 0 0 1-.203.083.285.285 0 0 1-.203-.083l-1.496-1.496a.284.284 0 0 1-.083-.203c0-.077.03-.15.083-.203l.218-.217a1.523 1.523 0 0 0 0-2.152l-.435-.435a1.511 1.511 0 0 0-1.076-.444c-.407 0-.79.158-1.076.444l-.324.324c-.685.686-.934 1.706-.7 2.874.22 1.099.848 2.211 1.769 3.133 1.16 1.16 2.638 1.853 3.954 1.853.829 0 1.538-.272 2.052-.785l.324-.324a1.523 1.523 0 0 0 0-2.152l-.435-.434Zm-.228 1.923-.324.324c-.334.334-.814.51-1.39.51-1.071 0-2.302-.59-3.29-1.578-.792-.792-1.33-1.734-1.513-2.654-.17-.85-.012-1.57.444-2.027l.324-.324a.58.58 0 0 1 .413-.17.58.58 0 0 1 .413.17l.435.435a.585.585 0 0 1 0 .826l-.218.217c-.23.23-.357.538-.357.866 0 .328.127.635.357.866l1.496 1.496c.231.23.539.357.866.357.328 0 .635-.127.866-.357l.217-.218a.58.58 0 0 1 .413-.17.58.58 0 0 1 .413.17l.435.435a.585.585 0 0 1 0 .826Z"/></g><defs><clipPath id="a"><path fill="#fff" transform="translate(4 4)" d="M0 0h16v16H0z"/></clipPath></defs></svg>